<?xml version="1.0" encoding="utf-8"?>
<!-- Generator: Adobe Illustrator 23.0.2, SVG Export Plug-In . SVG Version: 6.00 Build 0)  -->
<svg version="1.1" id="primærlogo" xmlns="http://www.w3.org/2000/svg" xmlns:xlink="http://www.w3.org/1999/xlink" x="0px"
	 y="0px" viewBox="0 0 470.8 115.9" style="enable-background:new 0 0 470.8 115.9;" xml:space="preserve">
<style type="text/css">
	.st0{fill:#00B5FF;}
	.st1{fill:#FFFFFF;}
	.st2{fill:#FFFFFF;}
	.st3{fill:#FFFFFF;}
</style>
<g>
	<path class="st0" d="M0.2,0h115.7v115.7H0.2V0z"/>
	<path class="st1" d="M29.6,81.2h56.8v9H29.6L29.6,81.2z"/>
	<g>
		<path class="st2" d="M24.6,67.2V47.4l-3.1-1.1V41l11.6-1.4h0.1L35,41v1.9l-0.1,1.3c1.3-1.3,3-2.3,4.9-3.1c2-0.8,4.1-1.2,6.5-1.2
			c2.2,0,4,0.4,5.4,1.2c1.3,0.8,2.3,2,3,3.8c0.6,1.8,1,4.1,1,7.1v15.2l2.8,0.5v4.2H41.7v-4.1l2.4-0.6V51.9c0-1.6-0.1-2.8-0.3-3.7
			c-0.2-0.9-0.6-1.5-1.1-1.9c-0.5-0.4-1.2-0.5-2.1-0.5c-1.6,0-3.1,0.7-4.7,2.2v19.1l2.8,0.5v4.1H21.7v-4.1L24.6,67.2L24.6,67.2z
			 M59.8,30.7v-3.8l12.3-1.5h0.1l2.1,1.3v16.5c0.9-1,2-1.8,3.4-2.4c1.4-0.7,2.9-1,4.4-1c2.4,0,4.6,0.5,6.4,1.6c1.8,1,3.3,2.7,4.3,5
			c1.1,2.2,1.6,5.1,1.6,8.6c0,3.2-0.7,6.1-2.1,8.7c-1.4,2.6-3.5,4.6-6.1,6c-2.7,1.5-5.8,2.2-9.4,2.2c-2.5,0-4.7-0.1-6.6-0.4
			c-1.9-0.3-3.4-0.6-4.5-0.9c-1.1-0.3-1.8-0.6-2.3-0.9V31.5L59.8,30.7z M74.5,67.1c0.2,0.2,0.5,0.5,1,0.6c0.5,0.2,1.1,0.3,1.8,0.3
			c1.7,0,3.1-1,4.1-3.1c1-2.1,1.5-5.1,1.5-9.2c0-3.3-0.4-5.7-1.2-7.3c-0.8-1.5-2-2.3-3.5-2.3c-0.7,0-1.4,0.1-2.1,0.5
			c-0.7,0.3-1.2,0.7-1.6,1.1L74.5,67.1L74.5,67.1z"/>
	</g>
</g>
<g>
	<path class="st3" d="M150.8,40.9l-4.5-0.7v-4h14.4l15.8,24.4l3.2,6.9V40.9l-4.9-0.7v-4h14.7v4l-4.4,0.7v37.8h-8.4L160,52.6
		l-3.8-7.6v29.3l6.1,0.6v3.8h-15.9V75l4.5-0.6V40.9z"/>
	<path class="st3" d="M194.8,74.9c-2.5-3-3.8-7-3.8-12.1c0-3.5,0.6-6.5,1.9-9c1.3-2.5,3.1-4.4,5.5-5.8c2.4-1.3,5.1-2,8.3-2
		c4,0,7.1,1,9.2,3c2.1,2,3.2,4.9,3.3,8.6c0,2.4-0.2,4.4-0.5,5.9h-17.9c0.2,3.2,1,5.7,2.4,7.4c1.4,1.7,3.4,2.6,5.9,2.6
		c1.4,0,2.9-0.2,4.4-0.7c1.5-0.5,2.8-1,3.8-1.6l1.6,3.5c-1,1.1-2.7,2.2-5.1,3.2c-2.4,1-4.8,1.5-7.3,1.5
		C201.2,79.4,197.3,77.9,194.8,74.9z M210.1,59.8l0.1-2.4c0-2.4-0.3-4.2-1-5.5c-0.7-1.3-1.8-1.9-3.3-1.9c-1.6,0-2.8,0.7-3.7,2.1
		c-0.9,1.4-1.4,4-1.4,7.7H210.1z"/>
	<path class="st3" d="M227.6,77.5c-1.2-1.2-1.8-3-1.8-5.4V51.7h-3.5v-3.3l1.1-0.5c0.9-0.3,1.7-0.6,2.4-1c0.8-0.7,1.4-1.7,1.8-2.9
		c0.6-1.4,1.2-3.3,1.9-5.8h5.3l0.3,8.6h8.2v4.8h-8.1v15.2c0,2.1,0.1,3.6,0.2,4.4c0.1,0.8,0.3,1.4,0.7,1.6c0.3,0.2,0.9,0.4,1.8,0.4
		c1.8,0,3.5-0.3,5.1-0.9l1.2,3.6c-1.1,0.9-2.7,1.6-4.8,2.3c-2.1,0.6-4.2,1-6.4,1C230.7,79.3,228.8,78.7,227.6,77.5z"/>
	<path class="st3" d="M252.1,77.5c-1.2-1.2-1.8-3-1.8-5.4V51.7h-3.5v-3.3l1.1-0.5c0.9-0.3,1.7-0.6,2.4-1c0.8-0.7,1.4-1.7,1.8-2.9
		c0.6-1.4,1.2-3.3,1.9-5.8h5.3l0.3,8.6h8.2v4.8h-8.1v15.2c0,2.1,0.1,3.6,0.2,4.4c0.1,0.8,0.3,1.4,0.7,1.6c0.3,0.2,0.9,0.4,1.8,0.4
		c1.8,0,3.5-0.3,5.1-0.9l1.2,3.6c-1.1,0.9-2.7,1.6-4.8,2.3c-2.1,0.6-4.2,1-6.4,1C255.2,79.3,253.3,78.7,252.1,77.5z"/>
	<path class="st3" d="M269.1,33.1l11.3-1.4h0.1l1.8,1.1v16.7c1-1,2.2-1.9,3.7-2.6c1.5-0.7,3-1,4.6-1c3.7,0,6.6,1.3,8.9,3.9
		c2.3,2.6,3.4,6.5,3.4,11.8c0,3.3-0.7,6.3-2.1,9c-1.4,2.7-3.4,4.8-6,6.3c-2.6,1.5-5.6,2.3-9.1,2.3c-3.3,0-6-0.3-8.3-0.8
		c-2.2-0.5-3.7-1-4.4-1.4v-40l-4.1-0.7V33.1z M284.4,52.3c-0.8,0.4-1.5,0.9-2.1,1.5v20.7c0.2,0.4,0.6,0.7,1.3,0.9
		c0.7,0.2,1.5,0.3,2.4,0.3c2.1,0,3.8-1.1,5.1-3.4c1.3-2.3,1.9-5.6,1.9-10c0-3.7-0.5-6.4-1.6-8.2c-1.1-1.7-2.5-2.6-4.4-2.6
		C286.1,51.7,285.2,51.9,284.4,52.3z"/>
	<path class="st3" d="M329.6,78.4c-0.6-0.6-0.9-1.5-0.9-2.6v-1.3c-0.9,1.3-2.3,2.4-4.1,3.4c-1.8,1-3.7,1.5-5.6,1.5
		c-3.7,0-6.4-0.9-8-2.8c-1.6-1.9-2.4-5-2.4-9.3V51.4l-2.7-0.7v-3.7l10.8-0.7h0.1L318,47v20.5c0,2.5,0.3,4.2,0.9,5.2
		c0.6,1,1.7,1.5,3.3,1.5c2.1,0,3.9-0.7,5.4-2.2V51.4l-3.6-0.9v-3.6l11.3-0.7h0.2l1.4,0.8v27.8h3v3.7c-1.3,0.3-2.5,0.5-3.6,0.6
		c-1.1,0.2-2.4,0.2-3.8,0.2C331.2,79.3,330.2,79,329.6,78.4z"/>
	<path class="st3" d="M344,75l3.5-0.5V52.9l-3.4-1v-4.5l9.5-1.3h0.2l1.6,1.2v1.4l-0.2,4.8h0.2c0.3-0.9,0.9-1.9,1.8-3.1
		c1-1.2,2.2-2.2,3.6-3c1.5-0.9,3.1-1.3,4.8-1.3c1,0,1.8,0.1,2.3,0.4v10c-0.6-0.5-1.3-0.8-2-1.1c-0.7-0.3-1.6-0.4-2.7-0.4
		c-1.4,0-2.6,0.2-3.7,0.5c-1.1,0.4-2,0.8-2.6,1.2v17.7l6.3,0.6v3.7H344V75z"/>
	<path class="st3" d="M375.1,74.9c-2.5-3-3.8-7-3.8-12.1c0-3.5,0.6-6.5,1.9-9c1.3-2.5,3.1-4.4,5.5-5.8c2.3-1.3,5.1-2,8.3-2
		c4,0,7.1,1,9.2,3c2.1,2,3.2,4.9,3.3,8.6c0,2.4-0.2,4.4-0.5,5.9h-17.9c0.2,3.2,1,5.7,2.4,7.4c1.4,1.7,3.4,2.6,5.9,2.6
		c1.4,0,2.9-0.2,4.4-0.7c1.5-0.5,2.8-1,3.8-1.6l1.6,3.5c-1,1.1-2.7,2.2-5.1,3.2c-2.4,1-4.8,1.5-7.3,1.5
		C381.5,79.4,377.6,77.9,375.1,74.9z M390.4,59.8l0.1-2.4c0-2.4-0.3-4.2-1-5.5c-0.7-1.3-1.8-1.9-3.3-1.9c-1.6,0-2.8,0.7-3.7,2.1
		c-0.9,1.4-1.4,4-1.4,7.7H390.4z"/>
	<path class="st3" d="M408.1,61.8c3.4-1.8,7.9-2.7,13.5-2.8v-1.1c0-1.4-0.2-2.5-0.5-3.3c-0.3-0.8-0.9-1.4-1.7-1.8
		c-0.8-0.4-2-0.6-3.6-0.6c-1.9,0-3.5,0.2-5,0.7c-1.5,0.4-3,1-4.6,1.7l-1.9-4.1c0.6-0.5,1.6-1.1,3-1.8c1.4-0.7,3-1.3,5-1.8
		c1.9-0.5,3.9-0.8,6-0.8c3.1,0,5.5,0.4,7.2,1.2c1.7,0.8,3,2,3.7,3.7c0.7,1.7,1.1,4,1.1,6.9v17h3v3.6c-0.9,0.2-2.1,0.4-3.7,0.6
		c-1.6,0.2-2.9,0.3-4,0.3c-1.5,0-2.4-0.2-2.9-0.6c-0.5-0.4-0.7-1.3-0.7-2.5V75c-1,1.1-2.2,2.2-3.8,3.1c-1.6,0.9-3.5,1.3-5.6,1.3
		c-1.8,0-3.4-0.4-4.9-1.2c-1.5-0.8-2.6-1.9-3.5-3.4c-0.9-1.5-1.3-3.2-1.3-5.2C402.9,66.2,404.6,63.6,408.1,61.8z M419.4,73.5
		c0.8-0.4,1.6-0.9,2.2-1.5v-9.1c-3,0-5.2,0.5-6.6,1.6c-1.4,1.1-2.1,2.4-2.1,4.1c0,1.7,0.4,3.1,1.1,4c0.8,1,1.8,1.4,3.2,1.4
		C417.8,74.1,418.5,73.9,419.4,73.5z"/>
	<path class="st3" d="M458.8,78.4c-0.6-0.6-0.9-1.5-0.9-2.6v-1.3c-0.9,1.3-2.3,2.4-4.1,3.4s-3.7,1.5-5.6,1.5c-3.7,0-6.4-0.9-8-2.8
		c-1.6-1.9-2.4-5-2.4-9.3V51.4l-2.7-0.7v-3.7l10.8-0.7h0.1l1.3,0.8v20.5c0,2.5,0.3,4.2,0.9,5.2c0.6,1,1.7,1.5,3.3,1.5
		c2.1,0,3.9-0.7,5.4-2.2V51.4l-3.6-0.9v-3.6l11.3-0.7h0.2l1.4,0.8v27.8h3v3.7c-1.3,0.3-2.5,0.5-3.6,0.6c-1.1,0.2-2.4,0.2-3.8,0.2
		C460.4,79.3,459.5,79,458.8,78.4z"/>
</g>
</svg>
