<?xml version="1.0" encoding="utf-8"?>
<!-- Generator: Adobe Illustrator 24.1.0, SVG Export Plug-In . SVG Version: 6.00 Build 0)  -->
<svg version="1.1" id="Layer_1" xmlns="http://www.w3.org/2000/svg" xmlns:xlink="http://www.w3.org/1999/xlink" x="0px" y="0px"
	 viewBox="0 0 632.5 443.7" style="enable-background:new 0 0 632.5 443.7;" xml:space="preserve">
<style type="text/css">
	.st0{fill:#21374A;}
</style>
<g id="_x39_LTL33.tif">
	<g>
		<path class="st0" d="M573.5,31.6c0.1,4.7-0.8,9.8-2.9,14.5c-2.9,6.4-8.1,12.2-16.3,16.1c-0.5,0.2-1,0.5-1.5,0.7
			c-27.9,11.7-56.8,18.3-87.1,19.7C427.1,84.4,390,78,354.5,63c-12.6-5.3-21.2-18.5-20.5-30.8c0.1-1.4,0.2-2.9,0.5-4.2
			c2.1-12.5,10.7-22.7,23-26.2c7.9-2.3,15.8-1.8,23.6,1.5c23.9,9.9,48.8,14.8,74.7,14.5c24-0.3,47.1-5,69.3-14
			c1.8-0.7,3.5-1.4,5.3-2.1c6.6-2,13.3-2.1,20.1-0.2c0,0,0.1,0,0.1,0c6.5,2.2,11.9,5.8,15.9,10.6c0.2,0.2,0.4,0.4,0.5,0.7
			c2.6,3.3,4.5,7.1,5.6,11.3c0,0,0,0.1,0,0.1C573.1,26.5,573.4,29,573.5,31.6z"/>
		<path class="st0" d="M145.3,157.7C68.8,156.7,0.7,217.8,0,299.5c-0.7,85,70,146.1,143.2,144.2c71.3,2.1,143.1-56.3,143.4-142.1
			C287,215.8,216.5,158.5,145.3,157.7z M143.3,378.7c-47.5-0.1-78.7-39.4-77.9-79.2c0.8-39,31.9-76.6,78.3-76.4
			c45.9,0.2,77.9,37.7,77.6,78.3C221.1,341.6,189,378.8,143.3,378.7z"/>
		<path class="st0" d="M193,53.7c19.2,0,38.3-0.1,57.5,0c17.7,0.2,31.1,12.2,32.6,30c1.2,14.8-8.1,29.7-24.4,33.9
			c-2.5,0.6-5.2,0.9-7.7,0.9c-39.1,0.1-78.2,0.1-117.3,0c-17.6,0-31.9-14.2-32.1-31.8c-0.3-17.6,13.4-32.5,31-32.9
			C152.7,53.5,172.9,53.8,193,53.7C193,53.8,193,53.7,193,53.7z"/>
	</g>
</g>
<path class="st0" d="M491.2,157.7c-76.5-0.9-144.7,60.2-145.3,141.9c-0.7,85,70,146.1,143.2,144.2c71.3,2.1,143.1-56.3,143.4-142.1
	C632.8,215.8,562.3,158.5,491.2,157.7z M489.1,378.7c-47.5-0.1-78.7-39.4-77.9-79.2c0.8-39,31.9-76.6,78.3-76.4
	c45.9,0.2,77.9,37.7,77.6,78.3C566.9,341.6,534.9,378.8,489.1,378.7z"/>
</svg>
